<svg width="32" height="32" viewBox="0 0 32 32" fill="none" xmlns="http://www.w3.org/2000/svg">
<path d="M29.5862 23.4999L18.5987 4.49992C18.3356 4.04296 17.9568 3.66339 17.5003 3.39947C17.0439 3.13554 16.5259 2.99658 15.9987 2.99658C15.4714 2.99658 14.9535 3.13554 14.497 3.39947C14.0406 3.66339 13.6617 4.04296 13.3987 4.49992L2.41118 23.4999C2.14426 23.9546 2.00241 24.4717 2.00003 24.9989C1.99765 25.5261 2.13482 26.0446 2.39762 26.5016C2.66041 26.9587 3.03947 27.338 3.49631 27.6012C3.95314 27.8643 4.47148 28.0019 4.99868 27.9999H26.9987C27.5259 28.0019 28.0442 27.8643 28.501 27.6012C28.9579 27.338 29.3369 26.9587 29.5997 26.5016C29.8625 26.0446 29.9997 25.5261 29.9973 24.9989C29.9949 24.4717 29.8531 23.9546 29.5862 23.4999ZM14.9987 12.9999C14.9987 12.7347 15.104 12.4803 15.2916 12.2928C15.4791 12.1053 15.7335 11.9999 15.9987 11.9999C16.2639 11.9999 16.5182 12.1053 16.7058 12.2928C16.8933 12.4803 16.9987 12.7347 16.9987 12.9999V17.9999C16.9987 18.2651 16.8933 18.5195 16.7058 18.707C16.5182 18.8946 16.2639 18.9999 15.9987 18.9999C15.7335 18.9999 15.4791 18.8946 15.2916 18.707C15.104 18.5195 14.9987 18.2651 14.9987 17.9999V12.9999ZM15.9987 23.9999C15.702 23.9999 15.412 23.9119 15.1653 23.7471C14.9186 23.5823 14.7264 23.348 14.6129 23.0739C14.4993 22.7999 14.4696 22.4983 14.5275 22.2073C14.5854 21.9163 14.7282 21.649 14.938 21.4393C15.1478 21.2295 15.4151 21.0866 15.706 21.0287C15.997 20.9709 16.2986 21.0006 16.5727 21.1141C16.8468 21.2276 17.0811 21.4199 17.2459 21.6666C17.4107 21.9132 17.4987 22.2032 17.4987 22.4999C17.4987 22.8977 17.3406 23.2793 17.0593 23.5606C16.778 23.8419 16.3965 23.9999 15.9987 23.9999Z" fill="#6A84A0"/>
</svg>
