<svg width="40" height="40" viewBox="0 0 40 40" fill="none" xmlns="http://www.w3.org/2000/svg">
<circle cx="20.4104" cy="20.2165" r="19.5896" fill="#FAFAFB"/>
<path d="M28.6738 14.021H25.8476L24.46 11.9396C24.3862 11.8258 24.2848 11.7325 24.1653 11.6683C24.0458 11.6041 23.9121 11.5711 23.7764 11.5723H17.2466C17.1109 11.5711 16.9772 11.6041 16.8577 11.6683C16.7382 11.7325 16.6368 11.8258 16.563 11.9396L15.1754 14.021H12.3492C11.7006 14.0237 11.0793 14.2825 10.6207 14.7412C10.162 15.1998 9.90318 15.8211 9.9005 16.4697V27.8969C9.90318 28.5455 10.162 29.1668 10.6207 29.6254C11.0793 30.0841 11.7006 30.3429 12.3492 30.3456H28.6738C29.3224 30.3429 29.9437 30.0841 30.4023 29.6254C30.861 29.1668 31.1198 28.5455 31.1225 27.8969V16.4697C31.1198 15.8211 30.861 15.1998 30.4023 14.7412C29.9437 14.2825 29.3224 14.0237 28.6738 14.021ZM24.1845 21.7752C24.1845 22.5016 23.9691 23.2118 23.5655 23.8158C23.1619 24.4199 22.5883 24.8906 21.9171 25.1686C21.246 25.4466 20.5074 25.5194 19.7949 25.3777C19.0824 25.2359 18.428 24.8861 17.9143 24.3724C17.4006 23.8587 17.0508 23.2043 16.909 22.4918C16.7673 21.7793 16.8401 21.0407 17.1181 20.3696C17.3961 19.6984 17.8668 19.1248 18.4709 18.7212C19.0749 18.3176 19.785 18.1021 20.5115 18.1021C21.4857 18.1021 22.4199 18.4891 23.1087 19.178C23.7976 19.8668 24.1845 20.801 24.1845 21.7752Z" fill="#ABABB0"/>
</svg>
