<svg width="32" height="32" viewBox="0 0 32 32" fill="none" xmlns="http://www.w3.org/2000/svg">
<path d="M27.7113 4.28752C27.5208 4.10179 27.2649 3.99852 26.9988 4.00002L19.0238 4.02502C18.876 4.02521 18.7301 4.05776 18.5962 4.12038C18.4623 4.18301 18.3437 4.27419 18.2488 4.38752L9.44884 15.0375L8.41134 14C8.03481 13.629 7.52743 13.421 6.99884 13.421C6.47024 13.421 5.96286 13.629 5.58634 14L3.99884 15.5875C3.81214 15.7723 3.66393 15.9923 3.56278 16.2348C3.46163 16.4772 3.40955 16.7373 3.40955 17C3.40955 17.2627 3.46163 17.5228 3.56278 17.7653C3.66393 18.0077 3.81214 18.2277 3.99884 18.4125L6.61134 21.025L2.86134 24.7625C2.48955 25.1412 2.28125 25.6506 2.28125 26.1813C2.28125 26.7119 2.48955 27.2214 2.86134 27.6L4.39884 29.1375C4.77902 29.5064 5.28789 29.7126 5.81759 29.7126C6.34728 29.7126 6.85616 29.5064 7.23634 29.1375L10.9738 25.3875L13.5863 28C13.9629 28.371 14.4702 28.579 14.9988 28.579C15.5274 28.579 16.0348 28.371 16.4113 28L17.9988 26.4125C18.1855 26.2277 18.3337 26.0077 18.4349 25.7653C18.536 25.5228 18.5881 25.2627 18.5881 25C18.5881 24.7373 18.536 24.4772 18.4349 24.2348C18.3337 23.9923 18.1855 23.7723 17.9988 23.5875L16.9613 22.55L27.6113 13.75C27.7247 13.6551 27.8158 13.5366 27.8785 13.4027C27.9411 13.2688 27.9736 13.1228 27.9738 12.975L27.9988 5.00002C28.0003 4.73397 27.8971 4.47802 27.7113 4.28752ZM25.9738 12.5L15.5363 21.125L13.9113 19.5L20.7113 12.7125C20.8708 12.5182 20.9523 12.2716 20.94 12.0205C20.9276 11.7695 20.8224 11.532 20.6446 11.3542C20.4669 11.1765 20.2294 11.0712 19.9783 11.0589C19.7273 11.0466 19.4806 11.1281 19.2863 11.2875L12.4988 18.0875L10.8738 16.4625L19.4988 6.02502L25.9988 6.00002L25.9738 12.5Z" fill="#3D8DFF"/>
</svg>
