<svg width="32" height="32" viewBox="0 0 32 32" fill="none" xmlns="http://www.w3.org/2000/svg">
<path d="M15.0006 6C15.0006 5.20888 15.2352 4.43552 15.6747 3.77772C16.1143 3.11992 16.739 2.60723 17.4699 2.30448C18.2008 2.00173 19.0051 1.92252 19.781 2.07686C20.5569 2.2312 21.2696 2.61216 21.8291 3.17157C22.3885 3.73098 22.7694 4.44372 22.9238 5.21964C23.0781 5.99556 22.9989 6.79983 22.6961 7.53074C22.3934 8.26164 21.8807 8.88635 21.2229 9.32588C20.5651 9.76541 19.7917 10 19.0006 10C17.9408 9.99671 16.9253 9.57422 16.1758 8.82479C15.4264 8.07536 15.0039 7.05985 15.0006 6ZM26.0006 17C22.4381 17 20.7881 15.2375 19.0506 13.3625C18.6131 12.8875 18.1506 12.4 17.6756 11.9625C13.0256 7.6625 5.61312 14.975 5.28812 15.2875C5.17888 15.3772 5.08961 15.4887 5.02607 15.6149C4.96253 15.7412 4.92612 15.8793 4.91919 16.0205C4.91225 16.1617 4.93495 16.3027 4.98582 16.4346C5.03668 16.5664 5.11459 16.6862 5.21452 16.7861C5.31446 16.886 5.43421 16.9639 5.56607 17.0148C5.69793 17.0657 5.83898 17.0884 5.98014 17.0814C6.1213 17.0745 6.25944 17.0381 6.38568 16.9746C6.51192 16.911 6.62346 16.8217 6.71312 16.7125C7.86102 15.5941 9.14135 14.6202 10.5256 13.8125C12.3131 12.7875 13.8131 12.425 14.9881 12.7125L12.7756 17.8L8.08812 28.6C8.03439 28.7197 8.00503 28.8488 8.00176 28.98C7.99849 29.1111 8.02138 29.2416 8.06909 29.3637C8.1168 29.4859 8.18838 29.5974 8.27964 29.6916C8.3709 29.7858 8.48002 29.8609 8.60063 29.9125C8.72532 29.9724 8.86229 30.0024 9.00062 30C9.19488 30.0008 9.38506 29.9443 9.54736 29.8376C9.70967 29.7309 9.8369 29.5787 9.91313 29.4L14.1131 19.7375L18.0006 22.5125V29C18.0006 29.2652 18.106 29.5196 18.2935 29.7071C18.4811 29.8946 18.7354 30 19.0006 30C19.2658 30 19.5202 29.8946 19.7077 29.7071C19.8953 29.5196 20.0006 29.2652 20.0006 29V22C20.0018 21.8401 19.9637 21.6824 19.8896 21.5407C19.8155 21.399 19.7077 21.2777 19.5756 21.1875L14.9381 17.8625L16.7006 13.8L17.5881 14.725C19.3631 16.625 21.5631 19 26.0006 19C26.2658 19 26.5202 18.8946 26.7077 18.7071C26.8953 18.5196 27.0006 18.2652 27.0006 18C27.0006 17.7348 26.8953 17.4804 26.7077 17.2929C26.5202 17.1054 26.2658 17 26.0006 17Z" fill="#3D8DFF"/>
</svg>
