<svg width="32" height="32" viewBox="0 0 32 32" fill="none" xmlns="http://www.w3.org/2000/svg">
<path d="M27 9H7C6.73478 9 6.48043 8.89464 6.29289 8.70711C6.10536 8.51957 6 8.26522 6 8C6 7.73478 6.10536 7.48043 6.29289 7.29289C6.48043 7.10536 6.73478 7 7 7H24C24.2652 7 24.5196 6.89464 24.7071 6.70711C24.8946 6.51957 25 6.26522 25 6C25 5.73478 24.8946 5.48043 24.7071 5.29289C24.5196 5.10536 24.2652 5 24 5H7C6.20536 5.00329 5.44421 5.32042 4.88232 5.88232C4.32042 6.44421 4.00329 7.20536 4 8V24C4.00329 24.7946 4.32042 25.5558 4.88232 26.1177C5.44421 26.6796 6.20536 26.9967 7 27H27C27.5304 27 28.0391 26.7893 28.4142 26.4142C28.7893 26.0391 29 25.5304 29 25V11C29 10.4696 28.7893 9.96086 28.4142 9.58579C28.0391 9.21071 27.5304 9 27 9ZM22.5 19.5C22.2033 19.5 21.9133 19.412 21.6666 19.2472C21.42 19.0824 21.2277 18.8481 21.1142 18.574C21.0007 18.2999 20.9709 17.9983 21.0288 17.7074C21.0867 17.4164 21.2296 17.1491 21.4393 16.9393C21.6491 16.7296 21.9164 16.5867 22.2074 16.5288C22.4983 16.4709 22.7999 16.5007 23.074 16.6142C23.3481 16.7277 23.5824 16.92 23.7472 17.1666C23.912 17.4133 24 17.7033 24 18C24 18.3978 23.842 18.7794 23.5607 19.0607C23.2794 19.342 22.8978 19.5 22.5 19.5Z" fill="#3D8DFF"/>
</svg>
